<?xml version="1.0" standalone="no"?>
<!DOCTYPE svg PUBLIC "-//W3C//DTD SVG 20010904//EN"
 "http://www.w3.org/TR/2001/REC-SVG-20010904/DTD/svg10.dtd">
<svg version="1.0" xmlns="http://www.w3.org/2000/svg"
 width="1366.000000pt" height="768.000000pt" viewBox="0 0 1366.000000 768.000000"
 preserveAspectRatio="xMidYMid meet">

<g transform="translate(0.000000,768.000000) scale(0.100000,-0.100000)"
fill="#000000" stroke="none">
<path d="M1345 5464 c-141 -19 -192 -30 -275 -56 -316 -101 -582 -331 -733
-633 -42 -85 -90 -234 -108 -335 -17 -96 -17 -314 0 -410 68 -389 320 -725
676 -903 85 -42 234 -90 335 -108 96 -17 314 -17 410 0 453 79 830 407 968
841 42 134 56 226 56 375 0 149 -14 241 -56 375 -60 187 -161 353 -303 495
-176 176 -398 295 -638 340 -81 15 -278 27 -332 19z m388 -67 c437 -115 755
-433 874 -874 25 -90 27 -114 27 -288 0 -174 -2 -198 -27 -288 -118 -441 -433
-756 -874 -874 -90 -25 -114 -27 -288 -27 -174 0 -198 2 -288 27 -441 119
-760 438 -873 874 -32 121 -43 328 -25 453 75 513 465 918 977 1015 126 23
372 14 497 -18z"/>
<path d="M590 4881 c0 -16 11 -19 72 -25 96 -10 123 -35 133 -127 4 -35 5
-257 3 -494 -3 -480 -3 -474 -73 -533 -21 -17 -60 -36 -87 -42 -36 -9 -48 -17
-48 -31 0 -18 11 -19 230 -19 219 0 230 1 230 19 0 15 -12 22 -51 31 -56 14
-110 55 -137 104 -15 28 -17 82 -20 511 -2 281 1 476 6 470 5 -6 121 -263 258
-573 231 -522 251 -562 272 -560 21 3 52 69 275 574 l252 570 3 -498 c2 -541
2 -548 -52 -583 -14 -10 -55 -20 -91 -23 -55 -4 -65 -8 -65 -23 0 -18 14 -19
305 -19 298 0 305 0 305 20 0 17 -7 20 -52 21 -77 0 -118 18 -143 59 -19 34
-20 49 -20 545 0 376 3 517 12 537 18 41 51 57 131 64 61 6 72 10 72 25 0 18
-12 19 -193 19 l-194 0 -233 -530 c-128 -292 -237 -527 -241 -523 -4 4 -112
243 -239 531 l-232 522 -194 0 c-183 0 -194 -1 -194 -19z"/>
<path d="M6960 5459 c-39 -16 -59 -39 -66 -76 -7 -40 10 -88 40 -108 24 -17
89 -20 117 -5 22 13 49 61 49 90 0 37 -30 81 -65 96 -39 16 -41 16 -75 3z"/>
<path d="M7935 5453 c-253 -53 -447 -220 -522 -447 -25 -74 -27 -94 -27 -241
0 -146 2 -167 27 -240 79 -240 271 -407 530 -462 92 -19 333 -13 422 11 229
62 417 242 480 459 41 141 36 359 -11 489 -81 224 -271 380 -526 432 -96 20
-279 20 -373 -1z m357 -53 c159 -49 274 -180 322 -367 41 -157 41 -391 1 -549
-38 -146 -140 -286 -250 -340 -75 -36 -187 -57 -270 -49 -140 12 -228 49 -312
128 -67 63 -104 128 -139 242 -26 85 -28 101 -28 290 -1 180 1 208 22 279 56
194 151 307 302 361 104 37 242 39 352 5z"/>
<path d="M9260 5459 c-20 -8 -195 -39 -222 -39 -5 0 -8 -8 -8 -19 0 -14 10
-20 41 -24 63 -8 80 -32 90 -124 10 -96 10 -908 0 -1017 -8 -92 -23 -110 -101
-121 -40 -6 -50 -11 -50 -26 0 -18 10 -19 220 -19 211 0 220 1 220 19 0 16
-10 21 -47 27 -28 4 -56 16 -70 30 l-23 23 0 651 c0 514 -3 650 -12 649 -7 0
-24 -5 -38 -10z"/>
<path d="M9760 5459 c-20 -8 -195 -39 -222 -39 -5 0 -8 -8 -8 -19 0 -14 10
-20 41 -24 63 -8 80 -32 90 -124 10 -96 10 -908 0 -1017 -8 -92 -23 -110 -101
-121 -40 -6 -50 -11 -50 -26 0 -18 10 -19 220 -19 211 0 220 1 220 19 0 16
-10 21 -47 27 -28 4 -56 16 -70 30 l-23 23 0 651 c0 514 -3 650 -12 649 -7 0
-24 -5 -38 -10z"/>
<path d="M10200 5459 c-39 -16 -59 -39 -66 -76 -7 -40 10 -88 40 -108 24 -17
89 -20 117 -5 22 13 49 61 49 90 0 37 -30 81 -65 96 -39 16 -41 16 -75 3z"/>
<path d="M3130 5425 c0 -24 2 -25 70 -25 85 0 123 -17 141 -62 17 -43 25 -839
11 -987 -15 -147 -51 -196 -163 -225 -42 -10 -55 -18 -57 -35 -3 -21 -3 -21
242 -21 l246 0 0 25 c0 21 -5 25 -27 25 -63 1 -147 60 -175 125 -20 45 -24
1071 -4 1035 7 -14 132 -292 277 -618 247 -558 264 -593 287 -590 21 3 52 68
292 611 148 335 271 611 274 615 10 10 6 -1000 -4 -1063 -14 -85 -37 -105
-139 -118 -67 -9 -81 -14 -81 -29 0 -17 20 -18 330 -18 323 0 330 0 330 20 0
16 -7 20 -34 20 -65 0 -141 20 -164 44 -38 38 -44 125 -40 665 3 441 5 499 20
527 23 41 56 54 143 54 73 0 75 1 75 25 l0 25 -211 -2 -211 -3 -248 -563
c-137 -310 -250 -565 -252 -568 -2 -2 -117 252 -255 564 l-252 567 -210 3
-211 2 0 -25z"/>
<path d="M5315 4916 c-64 -20 -99 -42 -138 -85 -29 -32 -37 -49 -37 -79 0 -46
14 -62 55 -62 40 0 62 24 81 86 25 85 71 114 177 114 47 0 75 -6 107 -23 60
-32 80 -73 80 -167 l0 -76 -107 -43 c-129 -52 -257 -118 -324 -167 -131 -96
-143 -260 -25 -329 99 -58 214 -41 373 56 45 27 84 49 86 49 3 0 7 -13 10 -29
8 -40 52 -88 94 -102 43 -14 126 -6 159 16 46 30 86 145 50 145 -8 0 -19 -13
-24 -29 -23 -66 -81 -91 -118 -50 -18 19 -19 44 -24 318 -5 291 -5 297 -30
346 -28 56 -101 108 -167 119 -64 10 -236 5 -278 -8z m298 -693 c-49 -39 -160
-93 -205 -98 -79 -10 -138 48 -138 137 0 115 82 195 290 283 l75 32 3 -165 3
-166 -28 -23z"/>
<path d="M6195 4905 c-44 -13 -92 -24 -107 -24 -23 -1 -28 -6 -28 -26 0 -23 4
-25 41 -25 31 0 47 -6 70 -29 l29 -29 0 -292 c0 -355 2 -347 -102 -365 -29 -4
-38 -11 -38 -25 0 -19 8 -20 215 -20 206 0 215 1 215 19 0 16 -10 21 -46 27
-25 3 -58 17 -72 29 l-27 23 0 234 c0 279 7 308 88 392 85 86 138 90 171 12
19 -45 43 -66 75 -66 80 0 80 132 -1 176 -36 20 -125 17 -173 -6 -50 -24 -129
-101 -145 -141 -18 -42 -30 -36 -30 16 0 24 -5 67 -11 95 -12 58 -9 57 -124
25z"/>
<path d="M7029 4926 c-4 -4 -122 -28 -201 -41 -29 -4 -38 -11 -38 -25 0 -16 7
-20 33 -21 58 -2 81 -13 99 -49 16 -31 18 -69 18 -328 l0 -293 -23 -23 c-16
-16 -41 -26 -75 -31 -42 -6 -52 -11 -52 -26 0 -18 10 -19 220 -19 211 0 220 1
220 19 0 16 -10 21 -46 27 -25 3 -58 17 -72 29 l-27 23 -3 381 -3 381 -23 0
c-12 0 -25 -2 -27 -4z"/>
<path d="M10269 4926 c-4 -4 -122 -28 -201 -41 -29 -4 -38 -11 -38 -25 0 -16
7 -20 33 -21 58 -2 81 -13 99 -49 16 -31 18 -69 18 -328 l0 -293 -23 -23 c-16
-16 -41 -26 -75 -31 -42 -6 -52 -11 -52 -26 0 -18 10 -19 220 -19 211 0 220 1
220 19 0 16 -10 21 -46 27 -25 3 -58 17 -72 29 l-27 23 -3 381 -3 381 -23 0
c-12 0 -25 -2 -27 -4z"/>
<path d="M4305 3523 c-34 -5 -59 -23 -32 -23 10 0 22 -12 27 -26 11 -29 13
-404 2 -419 -4 -6 -18 -16 -32 -22 -21 -10 -12 -12 60 -12 67 0 81 2 65 11
-44 23 -45 32 -45 270 0 125 -3 227 -7 227 -5 -1 -21 -4 -38 -6z"/>
<path d="M4605 3523 c-34 -5 -59 -23 -32 -23 10 0 22 -12 27 -26 11 -29 13
-404 2 -419 -4 -6 -18 -16 -32 -22 -21 -10 -12 -12 60 -12 67 0 81 2 65 11
-44 23 -45 32 -45 270 0 125 -3 227 -7 227 -5 -1 -21 -4 -38 -6z"/>
<path d="M6685 3523 c-11 -2 -31 -6 -45 -10 l-25 -6 25 -6 c32 -9 39 -45 39
-222 1 -186 -5 -226 -38 -244 -24 -13 -21 -14 52 -15 50 0 76 4 72 10 -3 6
-12 10 -20 10 -20 0 -25 24 -25 122 0 89 0 90 34 124 41 41 77 44 111 9 23
-22 25 -31 25 -127 0 -108 -3 -118 -35 -136 -16 -9 -5 -11 60 -11 75 0 78 1
54 14 -32 17 -39 47 -39 166 0 76 -3 92 -20 109 -30 30 -106 27 -154 -5 l-36
-24 0 124 c0 69 -3 124 -7 124 -5 -1 -17 -3 -28 -6z"/>
<path d="M8170 3523 c-47 -8 -57 -15 -30 -22 24 -7 25 -9 28 -109 l3 -102 -33
20 c-51 31 -128 27 -169 -7 -61 -52 -76 -137 -36 -213 41 -77 117 -100 194
-56 l41 24 7 -25 c4 -17 11 -23 21 -19 9 3 30 6 47 6 l32 0 -25 13 -25 13 -3
242 c-2 184 -5 242 -15 241 -6 -1 -23 -4 -37 -6z m-43 -224 l43 -21 0 -98 c0
-97 0 -98 -31 -124 -44 -37 -96 -36 -135 5 -27 29 -29 35 -29 114 0 69 3 87
20 105 39 44 72 48 132 19z"/>
<path d="M3332 3513 c50 -8 53 -21 53 -227 0 -105 -3 -203 -7 -217 -5 -18 -18
-29 -40 -36 -27 -9 -13 -11 82 -11 101 0 111 1 82 11 -18 7 -37 19 -42 27 -5
8 -10 61 -10 118 l0 102 49 0 c52 0 67 -10 81 -57 6 -20 8 -3 8 62 0 69 -2 83
-9 60 -12 -40 -35 -55 -86 -55 l-43 0 0 110 0 110 85 0 c78 0 88 -2 111 -25
13 -13 27 -38 30 -55 11 -50 19 -34 16 30 l-4 60 -191 -1 c-106 -1 -180 -4
-165 -6z"/>
<path d="M6358 3370 c-9 -17 -30 -36 -45 -42 l-28 -12 28 -4 27 -3 0 -128 c0
-120 1 -129 23 -149 31 -29 70 -28 104 4 l28 25 -28 -17 c-22 -13 -33 -15 -52
-6 -29 13 -38 60 -33 182 l3 85 50 4 50 5 -50 5 c-49 6 -50 7 -55 43 l-5 38
-17 -30z"/>
<path d="M3848 3305 c-46 -31 -73 -97 -65 -157 15 -111 134 -170 236 -116 54
28 81 75 81 138 0 97 -62 160 -159 160 -43 0 -65 -6 -93 -25z m160 -8 c58 -62
47 -229 -19 -262 -42 -22 -75 -18 -111 14 -27 24 -32 36 -36 89 -9 126 22 182
101 182 32 0 49 -6 65 -23z"/>
<path d="M4938 3305 c-46 -31 -73 -97 -65 -157 15 -111 134 -170 236 -116 54
28 81 75 81 138 0 97 -62 160 -159 160 -43 0 -65 -6 -93 -25z m160 -8 c58 -62
47 -229 -19 -262 -42 -22 -75 -18 -111 14 -27 24 -32 36 -36 89 -9 126 22 182
101 182 32 0 49 -6 65 -23z"/>
<path d="M7215 3308 c-34 -26 -64 -91 -65 -137 0 -82 73 -161 149 -161 39 0
106 33 115 56 10 27 0 27 -18 0 -20 -32 -76 -48 -116 -35 -47 17 -64 53 -66
145 -3 91 16 139 58 147 21 4 21 4 -3 6 -15 0 -39 -9 -54 -21z"/>
<path d="M7310 3323 c30 -11 50 -37 50 -65 0 -24 4 -28 30 -28 34 0 37 10 13
50 -18 31 -52 50 -86 49 -15 0 -17 -2 -7 -6z"/>
<path d="M8460 3323 c-8 -2 -22 -7 -30 -9 -10 -4 -8 -8 10 -17 24 -12 25 -16
28 -129 l3 -117 -28 -15 c-27 -15 -25 -15 52 -15 77 0 79 0 53 15 -28 14 -28
16 -28 114 0 91 2 101 26 129 30 36 59 40 74 11 16 -31 42 -26 38 8 -3 23 -8
27 -41 30 -31 3 -43 -2 -68 -27 -17 -17 -32 -31 -35 -31 -2 0 -4 14 -4 30 0
30 -12 36 -50 23z"/>
<path d="M8875 3308 c-34 -26 -64 -91 -65 -137 0 -82 73 -161 149 -161 39 0
106 33 115 56 10 27 0 27 -18 0 -20 -32 -76 -48 -116 -35 -47 17 -64 53 -66
145 -3 91 16 139 58 147 21 4 21 4 -3 6 -15 0 -39 -9 -54 -21z"/>
<path d="M8970 3323 c30 -11 50 -37 50 -65 0 -24 4 -28 30 -28 34 0 37 10 13
50 -18 31 -52 50 -86 49 -15 0 -17 -2 -7 -6z"/>
<path d="M9305 3318 c-25 -14 -35 -28 -35 -50 0 -31 29 -20 44 16 9 22 23 36
38 39 23 4 23 4 -2 5 -14 1 -34 -4 -45 -10z"/>
<path d="M9400 3323 c31 -12 50 -37 50 -68 0 -30 -4 -34 -66 -60 -73 -31 -134
-82 -134 -111 0 -11 7 -30 16 -42 21 -30 85 -30 140 2 l42 24 11 -25 c10 -21
17 -24 52 -21 34 2 43 8 50 28 8 23 8 24 -5 7 -8 -10 -23 -17 -33 -15 -16 3
-19 17 -23 127 -5 114 -7 124 -29 142 -13 10 -37 19 -55 18 -17 0 -24 -3 -16
-6z m50 -177 c0 -62 -1 -65 -34 -85 -58 -36 -106 -24 -106 29 0 39 27 69 84
96 28 13 52 24 54 24 1 0 2 -29 2 -64z"/>
<path d="M9746 3321 l-30 -6 27 -12 27 -13 0 -119 0 -120 -27 -15 c-27 -15
-25 -15 52 -15 77 0 79 0 53 15 -28 15 -28 16 -28 118 0 93 2 104 23 124 34
32 74 44 100 31 35 -19 37 -27 37 -146 0 -112 0 -112 -27 -127 -27 -15 -25
-15 52 -15 65 0 76 2 60 11 -32 18 -35 28 -35 124 0 89 0 90 34 123 22 22 43
33 65 33 52 2 66 -21 70 -118 4 -111 -3 -150 -32 -159 -19 -7 -17 -9 16 -12
20 -2 54 -3 75 -1 31 3 34 5 17 13 -32 14 -35 24 -35 143 0 135 -10 152 -88
152 -38 0 -55 -6 -83 -29 l-36 -30 -22 30 c-19 25 -28 29 -70 29 -35 0 -58 -7
-84 -24 l-36 -25 -3 22 c-3 24 -24 29 -72 18z"/>
<path d="M5346 3310 c21 -8 35 -37 99 -202 20 -54 40 -98 44 -98 3 0 26 54 51
119 25 66 47 118 51 116 3 -2 25 -56 48 -120 24 -63 46 -115 50 -115 4 0 31
62 60 138 29 75 62 145 73 155 20 17 19 17 -28 16 -41 0 -45 -2 -25 -10 12 -5
21 -15 19 -22 -40 -112 -74 -197 -79 -197 -4 0 -26 52 -49 115 -24 63 -46 115
-50 115 -4 0 -29 -55 -55 -122 l-48 -121 -38 99 c-22 54 -39 105 -39 112 0 7
10 17 23 22 16 6 2 9 -53 9 -51 0 -68 -3 -54 -9z"/>
</g>
</svg>
